<svg id="svg" version="1.1" xmlns="http://www.w3.org/2000/svg" xmlns:xlink="http://www.w3.org/1999/xlink" width="400" height="400" viewBox="0, 0, 400,400"><g id="svgg"><path id="path0" d="M43.164 75.737 C 18.694 82.855,19.157 118.593,43.795 124.400 C 47.583 125.294,352.417 125.294,356.205 124.400 C 381.000 118.556,381.137 82.009,356.389 75.620 C 352.506 74.617,46.620 74.732,43.164 75.737 M43.164 175.737 C 18.694 182.855,19.157 218.593,43.795 224.400 C 47.583 225.294,352.417 225.294,356.205 224.400 C 381.000 218.556,381.137 182.009,356.389 175.620 C 352.506 174.617,46.620 174.732,43.164 175.737 M43.164 275.737 C 18.694 282.855,19.157 318.593,43.795 324.400 C 47.583 325.294,352.417 325.294,356.205 324.400 C 381.000 318.556,381.137 282.009,356.389 275.620 C 352.506 274.617,46.620 274.732,43.164 275.737 " stroke="none" fill="#5c5c5c" fill-rule="evenodd"></path><path id="path1" d="" stroke="none" fill="#605c5c" fill-rule="evenodd"></path><path id="path2" d="" stroke="none" fill="#605c5c" fill-rule="evenodd"></path><path id="path3" d="" stroke="none" fill="#605c5c" fill-rule="evenodd"></path><path id="path4" d="" stroke="none" fill="#605c5c" fill-rule="evenodd"></path></g></svg>